<?xml version="1.0" encoding="UTF-8"?>
<svg width="110px" height="22px" viewBox="0 0 110 22" version="1.1" xmlns="http://www.w3.org/2000/svg" xmlns:xlink="http://www.w3.org/1999/xlink">
    <!-- Generator: Sketch 49 (51002) - http://www.bohemiancoding.com/sketch -->
    <title>Group 16</title>
    <desc>Created with Sketch.</desc>
    <defs></defs>
    <g id="UI" stroke="none" stroke-width="1" fill="none" fill-rule="evenodd">
        <g id="Group-16">
            <path d="M14.3725294,19.2767733 C13.9843568,19.623553 13.5553303,19.9601282 13.0854372,20.286509 C12.6155441,20.6128899 12.0996908,20.9035685 11.5378621,21.1585535 C10.9760333,21.4135386 10.3580309,21.6175236 9.68383643,21.7705146 C9.00964191,21.9235056 8.27416802,22 7.47739269,22 C5.14835709,22 3.31988727,21.1636616 1.99192838,19.4909597 C0.663969487,17.8182577 0,15.2990433 0,11.9332406 C0,10.0769495 0.194083388,8.45016925 0.582255988,7.05285118 C0.970428587,5.65553312 1.52714146,4.49281873 2.25241132,3.56467316 C2.97768118,2.63652758 3.84594897,1.94297865 4.85724074,1.48400556 C5.86853251,1.02503248 6.99728064,0.795549374 8.24351899,0.795549374 C9.48975733,0.795549374 10.6082905,1.0709291 11.5991522,1.6216968 C12.5900138,2.17246451 13.4531741,2.96800592 14.1886591,4.00834492 L12.6564065,5.78303199 C12.0639325,5.37505591 11.4357152,5.04867994 10.7717358,4.8038943 C10.1077563,4.55910865 9.38760481,4.43671766 8.61125961,4.43671766 C8.03921578,4.43671766 7.49782527,4.55910865 6.98707185,4.8038943 C6.47631843,5.04867994 6.02686217,5.44135103 5.63868957,5.98191933 C5.25051697,6.52248764 4.94406951,7.21603656 4.71933801,8.06258693 C4.4946065,8.90913729 4.38224243,9.92396256 4.38224243,11.1070932 C4.38224243,12.5350095 4.48439159,13.7181223 4.68869295,14.6564673 C4.89299432,15.5948123 5.17901195,16.3444571 5.54675441,16.9054242 C5.91449687,17.4663913 6.36395314,17.864162 6.8951367,18.0987483 C7.42632026,18.3333345 8.01878534,18.4506259 8.67254971,18.4506259 C8.93814149,18.4506259 9.21905166,18.4098289 9.51528864,18.3282337 C9.81152563,18.2466384 10.061791,18.144646 10.2660924,18.0222531 L10.2660924,12.9735744 L8.12093878,12.9735744 L8.12093878,10.1891516 L14.3725294,10.1891516 L14.3725294,19.2767733 Z M25.0444617,9.88317107 C24.7175795,9.78117705 24.4366693,9.70468268 24.2017227,9.65368567 C23.9667762,9.60268866 23.7471555,9.57719054 23.5428541,9.57719054 C23.1342514,9.57719054 22.7256548,9.78117552 22.3170521,10.1891516 C21.9084493,10.5971277 21.4385632,11.1580864 20.9073797,11.8720445 L20.9073797,21.6940195 L16.954168,21.6940195 L16.954168,6.33379694 L19.926738,6.33379694 L20.508994,9.02642559 C21.2240488,8.047283 21.8522661,7.30273783 22.3936647,6.79276773 C22.9350633,6.28279764 23.5326358,6.02781641 24.1864002,6.02781641 C24.3907016,6.02781641 24.6001074,6.04821491 24.8146238,6.08901252 C25.0291402,6.12981013 25.2691907,6.18080637 25.5347825,6.24200278 L25.0444617,9.88317107 Z M35.0728479,14.8400556 L33.9083359,14.8400556 C33.1932811,14.8400556 32.6059235,14.9012511 32.1462454,15.0236439 C31.6865673,15.1460368 31.3290453,15.3041251 31.0736686,15.4979138 C30.8182919,15.6917024 30.6395309,15.9262851 30.5373802,16.201669 C30.4352295,16.4770528 30.3841549,16.7677314 30.3841549,17.0737135 C30.3841549,17.6856776 30.552701,18.1497434 30.8897983,18.4659249 C31.2268955,18.7821064 31.6916742,18.9401947 32.2841482,18.9401947 C32.7949016,18.9401947 33.2852175,18.8535011 33.7551106,18.6801113 C34.2250038,18.5067214 34.6642451,18.2772383 35.0728479,17.9916551 L35.0728479,14.8400556 Z M36.0841346,21.6940195 L35.6551039,19.9499305 C35.08306,20.5006982 34.3986607,20.9800629 33.6018854,21.3880389 C32.8051101,21.796015 31.9572721,22 31.0583461,22 C29.4852255,22 28.3105103,21.6124285 27.5341651,20.837274 C26.7578199,20.0621194 26.3696531,18.9707998 26.3696531,17.5632823 C26.3696531,16.8493242 26.5075545,16.1761738 26.7833613,15.5438108 C27.0591682,14.9114479 27.503517,14.3555889 28.1164211,13.876217 C28.7293252,13.3968451 29.5158737,13.0143732 30.4760901,12.72879 C31.4363065,12.4432067 32.6110218,12.3004172 34.0002711,12.3004172 L35.0728479,12.3004172 L35.0728479,11.2600834 C35.0728479,10.4441313 34.7868303,9.87297335 34.2147864,9.54659249 C33.6427426,9.22021163 32.9583433,9.05702364 32.1615679,9.05702364 C31.4056529,9.05702364 30.6395342,9.13351801 29.863189,9.28650904 C29.0868438,9.43950007 28.3717998,9.61798693 27.7180354,9.82197497 L27.2890047,7.43532684 C28.1470704,7.08854718 29.0868426,6.76727083 30.1083495,6.47148818 C31.1298563,6.17570552 32.2739268,6.02781641 33.5405953,6.02781641 C35.4814583,6.02781641 36.8757942,6.45108524 37.7236449,7.29763561 C38.5714956,8.14418597 38.9954145,9.38339471 38.9954145,11.015299 L38.9954145,21.6940195 L36.0841346,21.6940195 Z M50.0350875,14.8400556 L48.8705755,14.8400556 C48.1555207,14.8400556 47.5681631,14.9012511 47.108485,15.0236439 C46.6488069,15.1460368 46.2912849,15.3041251 46.0359082,15.4979138 C45.7805315,15.6917024 45.6017704,15.9262851 45.4996198,16.201669 C45.3974691,16.4770528 45.3463945,16.7677314 45.3463945,17.0737135 C45.3463945,17.6856776 45.5149406,18.1497434 45.8520379,18.4659249 C46.1891351,18.7821064 46.6539138,18.9401947 47.2463877,18.9401947 C47.7571411,18.9401947 48.2474571,18.8535011 48.7173502,18.6801113 C49.1872434,18.5067214 49.6264847,18.2772383 50.0350875,17.9916551 L50.0350875,14.8400556 Z M51.0463742,21.6940195 L50.6173434,19.9499305 C50.0452996,20.5006982 49.3609003,20.9800629 48.564125,21.3880389 C47.7673496,21.796015 46.9195117,22 46.0205856,22 C44.4474651,22 43.2727499,21.6124285 42.4964047,20.837274 C41.7200595,20.0621194 41.3318927,18.9707998 41.3318927,17.5632823 C41.3318927,16.8493242 41.469794,16.1761738 41.7456009,15.5438108 C42.0214077,14.9114479 42.4657565,14.3555889 43.0786607,13.876217 C43.6915648,13.3968451 44.4781132,13.0143732 45.4383297,12.72879 C46.3985461,12.4432067 47.5732613,12.3004172 48.9625106,12.3004172 L50.0350875,12.3004172 L50.0350875,11.2600834 C50.0350875,10.4441313 49.7490698,9.87297335 49.177026,9.54659249 C48.6049822,9.22021163 47.9205829,9.05702364 47.1238075,9.05702364 C46.3678925,9.05702364 45.6017738,9.13351801 44.8254286,9.28650904 C44.0490834,9.43950007 43.3340394,9.61798693 42.680275,9.82197497 L42.2512442,7.43532684 C43.10931,7.08854718 44.0490822,6.76727083 45.070589,6.47148818 C46.0920959,6.17570552 47.2361664,6.02781641 48.5028349,6.02781641 C50.4436979,6.02781641 51.8380338,6.45108524 52.6858845,7.29763561 C53.5337351,8.14418597 53.9576541,9.38339471 53.9576541,11.015299 L53.9576541,21.6940195 L51.0463742,21.6940195 Z M63.3731393,21.5410292 C62.9032461,21.6838208 62.4282526,21.7960126 61.9481444,21.8776078 C61.4680361,21.959203 60.9623978,22 60.4312143,22 C59.348417,22 58.5465462,21.7654173 58.0255777,21.2962448 C57.5046092,20.8270723 57.2441289,19.9397376 57.2441289,18.6342142 L57.2441289,0 L61.1666955,0 L61.1666955,17.2573018 C61.1666955,18.0936528 61.2484149,18.634213 61.4118559,18.8789986 C61.575297,19.1237843 61.8408848,19.2461752 62.2086273,19.2461752 L62.637658,19.2461752 C62.8010991,19.2461752 62.9747527,19.235976 63.1586239,19.2155772 L63.3731393,21.5410292 Z" id="Combined-Shape-Copy" fill="#00758F"></path>
            <path d="M80.2660171,1.0403338 C79.4896719,4.52852926 78.6060818,8.00647316 77.6152201,11.4742698 C76.6243585,14.9420665 75.5671148,18.3486156 74.4434572,21.6940195 L69.1725083,21.6940195 C68.0284206,18.2466216 66.9660695,14.8094747 65.9854229,11.3824757 C65.0047763,7.95547661 64.1160787,4.50813046 63.3193034,1.0403338 L68.0079963,1.0403338 C68.2327278,2.26426203 68.4983156,3.5493674 68.8047677,4.89568846 C69.1112197,6.24200951 69.438097,7.61890812 69.7854093,9.02642559 C70.1327217,10.4339431 70.5004586,11.8567383 70.8886312,13.294854 C71.2768038,14.7329696 71.6751855,16.1353664 72.0837882,17.5020862 C72.4311006,16.3393544 72.7835151,15.0899464 73.1410425,13.7538248 C73.4985699,12.4177031 73.856092,11.0408045 74.2136194,9.62308762 C74.5711467,8.20537075 74.9082389,6.76727665 75.2249061,5.30876217 C75.5415732,3.85024769 75.8326983,2.42745246 76.0982901,1.0403338 L80.2660171,1.0403338 Z" id="GraalVM" fill="#F29111"></path>
            <path d="M99.3959838,21.6940195 C99.3551235,18.9809786 99.2836191,16.2883768 99.1814684,13.6161335 C99.0793177,10.9438902 98.9158791,8.21049149 98.6911476,5.41585535 L98.6298575,5.41585535 L93.9718096,21.6940195 L90.8766593,21.6940195 L86.3718367,5.41585535 L86.3105466,5.41585535 C86.0858151,8.21049149 85.9223764,10.9438902 85.8202257,13.6161335 C85.7180751,16.2883768 85.6465706,18.9809786 85.6057104,21.6940195 L81.6831437,21.6940195 C81.7852944,18.2262228 81.948733,14.7788767 82.1734645,11.3518776 C82.3981961,7.92487855 82.6842137,4.48773166 83.031526,1.0403338 L89.1298913,1.0403338 L92.8379426,14.3810848 L92.8992327,14.3810848 L96.7298642,1.0403338 L102.429844,1.0403338 C102.777156,4.48773166 103.063174,7.92487855 103.287905,11.3518776 C103.512637,14.7788767 103.676076,18.2262228 103.778226,21.6940195 L99.3959838,21.6940195 Z" id="GraalVM" fill="#F29111"></path>
            <polygon id="™" fill="#F29111" points="106.183449 19.6993572 106.183449 21.5600496 105.467845 21.5600496 105.467845 19.6993572 105.005685 19.6993572 105.005685 19.0890501 106.645609 19.0890501 106.645609 19.6993572"></polygon>
            <path d="M109.358939,21.5600496 C109.349,21.2325661 109.341546,20.9274156 109.336576,20.644589 C109.331607,20.3617623 109.324152,20.076459 109.314213,19.7886705 L108.747694,21.5600496 L108.106633,21.5600496 L107.525205,19.803556 C107.515266,20.0913445 107.510297,20.3766478 107.510297,20.6594745 L107.510297,21.5600496 L106.91396,21.5600496 C106.91396,21.1432524 106.923899,20.7289424 106.943777,20.3171071 C106.963655,19.9052718 106.988502,19.4959235 107.018319,19.0890501 L107.94264,19.0890501 L108.449526,20.7115739 L108.97132,19.0890501 L109.880733,19.0890501 C109.920489,19.5058473 109.950305,19.9176764 109.970183,20.3245499 C109.990061,20.7314233 110,21.1432524 110,21.5600496 L109.358939,21.5600496 Z" id="™" fill="#F29111"></path>
        </g>
    </g>
</svg>