<svg id="Ebene_1" data-name="Ebene 1" xmlns="http://www.w3.org/2000/svg" viewBox="0 0 322.52 302.59"><defs><style>.cls-1,.cls-2{fill:#004987;}.cls-2{fill-rule:evenodd;}</style></defs><title>Micronaut_StackLogo_Blue</title><path class="cls-1" d="M49.86,261.7V244.32h-.12L43.57,261.7H40.42l-6.09-17.38h-.12V261.7H31v-21h5.15L42,257.37h.16L48,240.7h5.4v21Z"/><path class="cls-1" d="M71.05,261.7v-21h3.51v21Z"/><path class="cls-1" d="M105.62,261.44a9.36,9.36,0,0,1-4,.76,10,10,0,0,1-4.13-.83,8.78,8.78,0,0,1-3.09-2.31,10.41,10.41,0,0,1-1.9-3.49,13.58,13.58,0,0,1-.67-4.37,13.74,13.74,0,0,1,.68-4.39,10.29,10.29,0,0,1,2-3.48,8.81,8.81,0,0,1,3.08-2.3,9.55,9.55,0,0,1,4.07-.83,11.53,11.53,0,0,1,3.86.62,6.86,6.86,0,0,1,2.89,1.9l-2.18,1.81a5.5,5.5,0,0,0-2-1.41,6.32,6.32,0,0,0-2.42-.46,5.44,5.44,0,0,0-2.77.68,5.85,5.85,0,0,0-1.93,1.84A8.66,8.66,0,0,0,96,247.89a13.59,13.59,0,0,0-.39,3.31,13.36,13.36,0,0,0,.39,3.29,8.65,8.65,0,0,0,1.17,2.71,5.83,5.83,0,0,0,2,1.86,5.54,5.54,0,0,0,2.79.68,5.28,5.28,0,0,0,2.55-.6,5.37,5.37,0,0,0,1.78-1.45l2.1,1.75A7.62,7.62,0,0,1,105.62,261.44Z"/><path class="cls-1" d="M135.75,261.7l-4.68-9.37h-3.2v9.37h-3.43v-21h7.15a12.64,12.64,0,0,1,2.88.32,6.83,6.83,0,0,1,2.37,1,4.9,4.9,0,0,1,1.6,1.78,5.52,5.52,0,0,1,.59,2.63,5.31,5.31,0,0,1-.44,2.23,5.21,5.21,0,0,1-1.12,1.61,5.56,5.56,0,0,1-1.52,1.06,6.13,6.13,0,0,1-1.6.5l5.18,9.88Zm-.24-15.17a3.53,3.53,0,0,0-.38-1.76,3.26,3.26,0,0,0-1-1.1,4,4,0,0,0-1.44-.58,8.29,8.29,0,0,0-1.64-.16h-3.16v7.32h3.24a4.92,4.92,0,0,0,3.19-1A3.3,3.3,0,0,0,135.51,246.53Z"/><path class="cls-1" d="M173.76,251.17a14.76,14.76,0,0,1-.65,4.49,9.85,9.85,0,0,1-1.87,3.48,8.63,8.63,0,0,1-3,2.26,10.25,10.25,0,0,1-7.94,0,8.55,8.55,0,0,1-3-2.26,9.85,9.85,0,0,1-1.87-3.48,14.76,14.76,0,0,1-.64-4.49,15.09,15.09,0,0,1,.62-4.49,9.76,9.76,0,0,1,1.84-3.47,8.1,8.1,0,0,1,3-2.23,9.94,9.94,0,0,1,4-.78,9.59,9.59,0,0,1,4,.78,8.55,8.55,0,0,1,3,2.23,9.81,9.81,0,0,1,1.87,3.47A14.76,14.76,0,0,1,173.76,251.17Zm-3.71,0a14.39,14.39,0,0,0-.37-3.35,9.12,9.12,0,0,0-1.09-2.73,5.5,5.5,0,0,0-1.8-1.82,4.53,4.53,0,0,0-2.47-.67,4.72,4.72,0,0,0-2.54.67,5.55,5.55,0,0,0-1.82,1.82,8.85,8.85,0,0,0-1.07,2.73,16.21,16.21,0,0,0,0,6.7,8.85,8.85,0,0,0,1.07,2.73,5.55,5.55,0,0,0,1.82,1.82,4.72,4.72,0,0,0,2.54.67,4.53,4.53,0,0,0,2.47-.67,5.5,5.5,0,0,0,1.8-1.82,9.12,9.12,0,0,0,1.09-2.73A14.45,14.45,0,0,0,170.05,251.17Z"/><path class="cls-1" d="M204,261.7l-11.63-20.23h-.07V261.7h-.86v-21h1.4l11.59,20.2h.08V240.7h.85v21Z"/><path class="cls-1" d="M233.79,255.71h-9.72l-2.1,6h-.86l7.14-21h1.48l6.9,21h-.85Zm-9.52-.6h9.32l-4.53-14h-.15Z"/><path class="cls-1" d="M265.56,257.23a6.8,6.8,0,0,1-1.17,2.6,5.52,5.52,0,0,1-2.18,1.72,9.71,9.71,0,0,1-6.83,0,5.63,5.63,0,0,1-2.19-1.72,6.93,6.93,0,0,1-1.15-2.6,14.92,14.92,0,0,1-.33-3.21V240.7h.86v13a17.89,17.89,0,0,0,.22,2.83,7.08,7.08,0,0,0,.87,2.54,5,5,0,0,0,1.89,1.82,8.06,8.06,0,0,0,6.48,0,5.18,5.18,0,0,0,1.91-1.8,6.54,6.54,0,0,0,.9-2.52,19.56,19.56,0,0,0,.21-2.89v-13h.86V254A13.73,13.73,0,0,1,265.56,257.23Z"/><path class="cls-1" d="M287.31,241.3v20.4h-.86V241.3H281v-.6h11.78v.6Z"/><path class="cls-1" d="M193.33,126.56a3.44,3.44,0,1,0-2.43-4.21A3.42,3.42,0,0,0,193.33,126.56Z"/><path class="cls-1" d="M190.27,110.53a3.44,3.44,0,1,0-4.21-2.43A3.45,3.45,0,0,0,190.27,110.53Z"/><path class="cls-1" d="M174.73,93.31a3.44,3.44,0,1,0,4.87,0A3.44,3.44,0,0,0,174.73,93.31Z"/><path class="cls-1" d="M161.74,88.59a3.44,3.44,0,1,0,2.44,4.22A3.45,3.45,0,0,0,161.74,88.59Z"/><path class="cls-1" d="M145.71,100.08a3.44,3.44,0,1,0-4.21-2.43A3.44,3.44,0,0,0,145.71,100.08Z"/><path class="cls-1" d="M130.92,106.54a3.44,3.44,0,1,0,4.86,0A3.42,3.42,0,0,0,130.92,106.54Z"/><path class="cls-1" d="M130.42,122a3.44,3.44,0,1,0,2.43,4.21A3.44,3.44,0,0,0,130.42,122Z"/><path class="cls-1" d="M133.48,138a3.44,3.44,0,1,0,4.21,2.43A3.44,3.44,0,0,0,133.48,138Z"/><path class="cls-1" d="M149,155.22a3.44,3.44,0,1,0-4.86,0A3.43,3.43,0,0,0,149,155.22Z"/><path class="cls-1" d="M162,159.93a3.44,3.44,0,1,0-2.43-4.21A3.44,3.44,0,0,0,162,159.93Z"/><path class="cls-1" d="M178,148.45a3.44,3.44,0,1,0,4.21,2.42A3.44,3.44,0,0,0,178,148.45Z"/><path class="cls-1" d="M192.83,142a3.44,3.44,0,1,0-4.86,0A3.44,3.44,0,0,0,192.83,142Z"/><path class="cls-1" d="M211.55,120.49a4,4,0,1,0,2.85,4.93A4,4,0,0,0,211.55,120.49Z"/><path class="cls-1" d="M205.09,103.94a4,4,0,1,0-4.93-2.85A4,4,0,0,0,205.09,103.94Z"/><path class="cls-1" d="M183.45,85.05a4,4,0,1,0,0-5.7A4,4,0,0,0,183.45,85.05Z"/><path class="cls-1" d="M161,79.52a4,4,0,1,0-2.85-4.94A4,4,0,0,0,161,79.52Z"/><path class="cls-1" d="M136.61,78.19A4,4,0,1,0,141.55,81,4,4,0,0,0,136.61,78.19Z"/><path class="cls-1" d="M117,102.69A4,4,0,1,0,117,97,4,4,0,0,0,117,102.69Z"/><path class="cls-1" d="M112.19,128a4,4,0,1,0-2.85-4.94A4,4,0,0,0,112.19,128Z"/><path class="cls-1" d="M118.65,144.59a4,4,0,1,0,4.93,2.85A4,4,0,0,0,118.65,144.59Z"/><path class="cls-1" d="M140.3,163.48a4,4,0,1,0,0,5.7A4,4,0,0,0,140.3,163.48Z"/><path class="cls-1" d="M162.8,169a4,4,0,1,0,2.85,4.93A4,4,0,0,0,162.8,169Z"/><path class="cls-1" d="M187.13,170.33a4,4,0,1,0-4.93-2.84A4,4,0,0,0,187.13,170.33Z"/><path class="cls-1" d="M206.78,145.83a4,4,0,1,0,0,5.7A4,4,0,0,0,206.78,145.83Z"/><path class="cls-1" d="M225.81,136.79a5.2,5.2,0,1,0-3.67-6.36A5.21,5.21,0,0,0,225.81,136.79Z"/><path class="cls-1" d="M227.18,96.77a5.19,5.19,0,1,0-3.67,6.37A5.2,5.2,0,0,0,227.18,96.77Z"/><path class="cls-1" d="M204.69,67.8a5.2,5.2,0,1,0,0,7.35A5.21,5.21,0,0,0,204.69,67.8Z"/><path class="cls-1" d="M168,64a5.19,5.19,0,1,0-3.67-6.36A5.19,5.19,0,0,0,168,64Z"/><path class="cls-1" d="M137.07,69a5.19,5.19,0,1,0-6.36-3.68A5.18,5.18,0,0,0,137.07,69Z"/><path class="cls-1" d="M112.76,81.45a5.19,5.19,0,1,0,0,7.34A5.18,5.18,0,0,0,112.76,81.45Z"/><path class="cls-1" d="M97.93,111.74a5.19,5.19,0,1,0,3.67,6.36A5.2,5.2,0,0,0,97.93,111.74Z"/><path class="cls-1" d="M100.24,145.39a5.19,5.19,0,1,0,6.36,3.67A5.18,5.18,0,0,0,100.24,145.39Z"/><path class="cls-1" d="M126.4,173.38a5.19,5.19,0,1,0,0,7.34A5.18,5.18,0,0,0,126.4,173.38Z"/><path class="cls-1" d="M155.71,184.53a5.2,5.2,0,1,0,3.67,6.37A5.2,5.2,0,0,0,155.71,184.53Z"/><path class="cls-1" d="M186.67,179.54a5.19,5.19,0,1,0,6.36,3.67A5.19,5.19,0,0,0,186.67,179.54Z"/><path class="cls-1" d="M218.33,167.08a5.19,5.19,0,1,0-7.34,0A5.2,5.2,0,0,0,218.33,167.08Z"/><path class="cls-1" d="M244.35,140.1a6.05,6.05,0,1,0,4.28,7.41A6.05,6.05,0,0,0,244.35,140.1Z"/><path class="cls-1" d="M244.35,108.43a6.05,6.05,0,1,0-7.42-4.28A6,6,0,0,0,244.35,108.43Z"/><path class="cls-1" d="M216.82,69.31a6.05,6.05,0,1,0,0-8.56A6.05,6.05,0,0,0,216.82,69.31Z"/><path class="cls-1" d="M182,49.2a6.05,6.05,0,1,0-4.28-7.41A6.06,6.06,0,0,0,182,49.2Z"/><path class="cls-1" d="M141.76,49.2a6.05,6.05,0,1,0-7.41-4.28A6,6,0,0,0,141.76,49.2Z"/><path class="cls-1" d="M98.36,69.32a6.06,6.06,0,1,0,0-8.56A6.06,6.06,0,0,0,98.36,69.32Z"/><path class="cls-1" d="M82.53,96.74a6.05,6.05,0,1,0,4.28,7.41A6,6,0,0,0,82.53,96.74Z"/><path class="cls-1" d="M79.4,140.1a6.05,6.05,0,1,0,7.41,4.27A6,6,0,0,0,79.4,140.1Z"/><path class="cls-1" d="M106.93,179.21a6.05,6.05,0,1,0,0,8.56A6.05,6.05,0,0,0,106.93,179.21Z"/><path class="cls-1" d="M141.76,199.32a6.05,6.05,0,1,0,4.28,7.42A6.06,6.06,0,0,0,141.76,199.32Z"/><path class="cls-1" d="M182,199.33a6,6,0,1,0,7.41,4.27A6.05,6.05,0,0,0,182,199.33Z"/><path class="cls-1" d="M225.38,179.21a6.05,6.05,0,1,0,0,8.56A6.06,6.06,0,0,0,225.38,179.21Z"/><path class="cls-2" d="M179.93,127.87c-1.43,1.42-2.74,2.82-4.14,4.11a33.94,33.94,0,0,1-3.4,2.71,6.07,6.07,0,0,1-5.68.6A3.87,3.87,0,0,1,164,132c-2,1.65-3.88,3.57-6.77,3.7-.23,1.09-.47,2.21-.71,3.33a11.06,11.06,0,0,0-.3,1.5c-.05.71-.4,1-1.1,1.15-1.74.35-5.51,1.27-5.78,1.33q3.15-14.76,6.24-29.39H162c-.34,1.59-3.28,15.58-3.3,15.77-.17,1.68.89,2.67,2.52,2.18a12.76,12.76,0,0,0,2.61-1.42c.13-.07.17-.33.21-.51q1.66-7.82,3.31-15.63c0-.13.08-.26.12-.39h6.3c-.34,1.61-2.48,11.91-3.22,15.5a3.61,3.61,0,0,0-.07.87,1.48,1.48,0,0,0,1.24,1.56,2.77,2.77,0,0,0,2.11-.23,21.27,21.27,0,0,0,2-1.28,16.75,16.75,0,0,0,1.91-1.65A2.34,2.34,0,0,1,179.93,127.87Z"/></svg>