<svg id="Ebene_1" data-name="Ebene 1" xmlns="http://www.w3.org/2000/svg" viewBox="0 0 600 300"><defs><style>.cls-1,.cls-2{fill:#004987;}.cls-2{fill-rule:evenodd;}</style></defs><title>Micronaut_LongLogo_Blue</title><path class="cls-1" d="M266.73,165.49V148.12h-.12l-6.17,17.37h-3.16l-6.08-17.37h-.12v17.37h-3.24v-21H253l5.9,16.66h.16l5.78-16.66h5.4v21Z"/><path class="cls-1" d="M287.92,165.49v-21h3.51v21Z"/><path class="cls-1" d="M322.49,165.24a9.51,9.51,0,0,1-4,.76,9.8,9.8,0,0,1-4.13-.84,8.66,8.66,0,0,1-3.09-2.31,10.48,10.48,0,0,1-1.91-3.48,13.9,13.9,0,0,1-.66-4.37,13.7,13.7,0,0,1,.68-4.39,10.49,10.49,0,0,1,2-3.49,8.91,8.91,0,0,1,3.09-2.29,9.55,9.55,0,0,1,4.07-.83,11.29,11.29,0,0,1,3.86.62,6.77,6.77,0,0,1,2.89,1.9l-2.18,1.8a5.58,5.58,0,0,0-2-1.41,6.51,6.51,0,0,0-2.42-.46,5.35,5.35,0,0,0-2.77.69A5.66,5.66,0,0,0,314,149a8.66,8.66,0,0,0-1.15,2.71,13.59,13.59,0,0,0-.39,3.31,13.42,13.42,0,0,0,.39,3.29A8.75,8.75,0,0,0,314,161a5.71,5.71,0,0,0,2,1.85,5.44,5.44,0,0,0,2.79.68,5.27,5.27,0,0,0,2.55-.59,5.5,5.5,0,0,0,1.78-1.45l2.1,1.75A7.74,7.74,0,0,1,322.49,165.24Z"/><path class="cls-1" d="M352.62,165.49l-4.68-9.37h-3.2v9.37H341.3v-21h7.16a12.65,12.65,0,0,1,2.88.31,7.09,7.09,0,0,1,2.36,1,4.92,4.92,0,0,1,1.61,1.78,5.53,5.53,0,0,1,.58,2.64,5.27,5.27,0,0,1-.43,2.22,5.14,5.14,0,0,1-1.12,1.62,5.67,5.67,0,0,1-1.52,1.05,5.87,5.87,0,0,1-1.61.51l5.19,9.87Zm-.24-15.17a3.63,3.63,0,0,0-.38-1.75,3.27,3.27,0,0,0-1-1.1,4,4,0,0,0-1.44-.58,8.38,8.38,0,0,0-1.64-.17h-3.16V154H348a5,5,0,0,0,3.19-1A3.32,3.32,0,0,0,352.38,150.32Z"/><path class="cls-1" d="M390.63,155a14.82,14.82,0,0,1-.65,4.5,10,10,0,0,1-1.87,3.48,8.48,8.48,0,0,1-3,2.25,10.13,10.13,0,0,1-7.94,0,8.41,8.41,0,0,1-3-2.25,10,10,0,0,1-1.87-3.48,14.83,14.83,0,0,1-.64-4.5,15.18,15.18,0,0,1,.62-4.49,10,10,0,0,1,1.83-3.47,8.19,8.19,0,0,1,3-2.22,9.92,9.92,0,0,1,4-.78,9.6,9.6,0,0,1,4,.78,8.52,8.52,0,0,1,3,2.22,9.89,9.89,0,0,1,1.87,3.47A14.85,14.85,0,0,1,390.63,155Zm-3.71,0a15,15,0,0,0-.37-3.35,9.16,9.16,0,0,0-1.09-2.72,5.63,5.63,0,0,0-1.8-1.83,4.62,4.62,0,0,0-2.48-.66,4.8,4.8,0,0,0-2.53.66,5.68,5.68,0,0,0-1.82,1.83,8.88,8.88,0,0,0-1.07,2.72,16.21,16.21,0,0,0,0,6.7,8.85,8.85,0,0,0,1.07,2.73,5.68,5.68,0,0,0,1.82,1.83,4.8,4.8,0,0,0,2.53.66,4.62,4.62,0,0,0,2.48-.66,5.63,5.63,0,0,0,1.8-1.83,9.12,9.12,0,0,0,1.09-2.73A14.88,14.88,0,0,0,386.92,155Z"/><path class="cls-1" d="M420.91,165.49l-11.63-20.22h-.07v20.22h-.86v-21h1.4l11.59,20.19h.08V144.5h.85v21Z"/><path class="cls-1" d="M450.66,159.5h-9.72l-2.1,6H438l7.14-21h1.48l6.9,21h-.86Zm-9.52-.59h9.32l-4.53-14h-.15Z"/><path class="cls-1" d="M482.43,161a6.82,6.82,0,0,1-1.17,2.59,5.54,5.54,0,0,1-2.19,1.72,8.08,8.08,0,0,1-3.39.63,8.18,8.18,0,0,1-3.43-.63,5.47,5.47,0,0,1-2.19-1.72,6.8,6.8,0,0,1-1.15-2.59,15,15,0,0,1-.33-3.22V144.5h.86v13a18,18,0,0,0,.22,2.83,7,7,0,0,0,.87,2.53,5,5,0,0,0,1.89,1.83,6.66,6.66,0,0,0,3.26.69,6.55,6.55,0,0,0,3.22-.68,5.07,5.07,0,0,0,1.91-1.79,6.84,6.84,0,0,0,.9-2.52,19.66,19.66,0,0,0,.21-2.89v-13h.86v13.31A13.76,13.76,0,0,1,482.43,161Z"/><path class="cls-1" d="M504.18,145.09v20.4h-.86v-20.4h-5.46v-.59h11.78v.59Z"/><path class="cls-1" d="M172,156.75a2.62,2.62,0,1,0-1.85-3.21A2.62,2.62,0,0,0,172,156.75Z"/><path class="cls-1" d="M169.7,144.52a2.62,2.62,0,1,0-3.21-1.85A2.62,2.62,0,0,0,169.7,144.52Z"/><path class="cls-1" d="M157.86,131.4a2.62,2.62,0,1,0,3.71,0A2.62,2.62,0,0,0,157.86,131.4Z"/><path class="cls-1" d="M148,127.8a2.62,2.62,0,1,0,1.85,3.21A2.63,2.63,0,0,0,148,127.8Z"/><path class="cls-1" d="M135.73,136.56a2.62,2.62,0,1,0-3.21-1.85A2.62,2.62,0,0,0,135.73,136.56Z"/><path class="cls-1" d="M124.46,141.49a2.62,2.62,0,1,0,3.71,0A2.61,2.61,0,0,0,124.46,141.49Z"/><path class="cls-1" d="M124.08,153.24a2.62,2.62,0,1,0,1.85,3.21A2.63,2.63,0,0,0,124.08,153.24Z"/><path class="cls-1" d="M126.41,165.47a2.62,2.62,0,1,0,3.21,1.85A2.61,2.61,0,0,0,126.41,165.47Z"/><path class="cls-1" d="M138.25,178.59a2.62,2.62,0,1,0-3.7,0A2.6,2.6,0,0,0,138.25,178.59Z"/><path class="cls-1" d="M148.16,182.19A2.62,2.62,0,1,0,146.3,179,2.63,2.63,0,0,0,148.16,182.19Z"/><path class="cls-1" d="M160.38,173.43a2.62,2.62,0,1,0,3.21,1.85A2.63,2.63,0,0,0,160.38,173.43Z"/><path class="cls-1" d="M171.66,168.51a2.62,2.62,0,1,0-3.71,0A2.63,2.63,0,0,0,171.66,168.51Z"/><path class="cls-1" d="M185.93,152.12a3.07,3.07,0,1,0,2.17,3.76A3.07,3.07,0,0,0,185.93,152.12Z"/><path class="cls-1" d="M181,139.5a3.07,3.07,0,1,0-3.76-2.17A3.07,3.07,0,0,0,181,139.5Z"/><path class="cls-1" d="M164.5,125.1a3.07,3.07,0,1,0,0-4.34A3.07,3.07,0,0,0,164.5,125.1Z"/><path class="cls-1" d="M147.35,120.88a3.07,3.07,0,1,0-2.17-3.76A3.07,3.07,0,0,0,147.35,120.88Z"/><path class="cls-1" d="M128.8,119.87a3.07,3.07,0,1,0,3.76,2.17A3.08,3.08,0,0,0,128.8,119.87Z"/><path class="cls-1" d="M113.82,138.55a3.07,3.07,0,1,0,0-4.34A3.07,3.07,0,0,0,113.82,138.55Z"/><path class="cls-1" d="M110.18,157.87a3.07,3.07,0,1,0-2.17-3.76A3.08,3.08,0,0,0,110.18,157.87Z"/><path class="cls-1" d="M115.11,170.49a3.07,3.07,0,1,0,3.76,2.17A3.07,3.07,0,0,0,115.11,170.49Z"/><path class="cls-1" d="M131.61,184.89a3.07,3.07,0,1,0,0,4.35A3.07,3.07,0,0,0,131.61,184.89Z"/><path class="cls-1" d="M148.76,189.11a3.07,3.07,0,1,0,2.17,3.76A3.07,3.07,0,0,0,148.76,189.11Z"/><path class="cls-1" d="M167.32,190.12a3.07,3.07,0,1,0-3.77-2.17A3.08,3.08,0,0,0,167.32,190.12Z"/><path class="cls-1" d="M182.3,171.44a3.07,3.07,0,1,0,0,4.34A3.08,3.08,0,0,0,182.3,171.44Z"/><path class="cls-1" d="M196.8,164.54a4,4,0,1,0-2.8-4.85A4,4,0,0,0,196.8,164.54Z"/><path class="cls-1" d="M197.84,134a4,4,0,1,0-2.79,4.85A4,4,0,0,0,197.84,134Z"/><path class="cls-1" d="M180.7,112a4,4,0,1,0,0,5.6A4,4,0,0,0,180.7,112Z"/><path class="cls-1" d="M152.75,109.05A4,4,0,1,0,150,104.2,4,4,0,0,0,152.75,109.05Z"/><path class="cls-1" d="M129.15,112.85a4,4,0,1,0-4.85-2.79A3.95,3.95,0,0,0,129.15,112.85Z"/><path class="cls-1" d="M110.61,122.36a4,4,0,1,0,0,5.59A3.94,3.94,0,0,0,110.61,122.36Z"/><path class="cls-1" d="M99.31,145.45a4,4,0,1,0,2.8,4.85A4,4,0,0,0,99.31,145.45Z"/><path class="cls-1" d="M101.07,171.1a4,4,0,1,0,4.85,2.8A4,4,0,0,0,101.07,171.1Z"/><path class="cls-1" d="M121,192.44a4,4,0,1,0,0,5.6A4,4,0,0,0,121,192.44Z"/><path class="cls-1" d="M143.36,200.94a4,4,0,1,0,2.8,4.85A4,4,0,0,0,143.36,200.94Z"/><path class="cls-1" d="M167,197.14a4,4,0,1,0,4.85,2.79A4,4,0,0,0,167,197.14Z"/><path class="cls-1" d="M191.1,187.64a4,4,0,1,0-5.6,0A4,4,0,0,0,191.1,187.64Z"/><path class="cls-1" d="M210.93,167.07a4.61,4.61,0,1,0,3.27,5.65A4.61,4.61,0,0,0,210.93,167.07Z"/><path class="cls-1" d="M210.93,142.93a4.62,4.62,0,1,0-5.65-3.27A4.61,4.61,0,0,0,210.93,142.93Z"/><path class="cls-1" d="M190,113.11a4.61,4.61,0,1,0,0-6.53A4.61,4.61,0,0,0,190,113.11Z"/><path class="cls-1" d="M163.39,97.77a4.61,4.61,0,1,0-3.26-5.65A4.61,4.61,0,0,0,163.39,97.77Z"/><path class="cls-1" d="M132.73,97.77a4.61,4.61,0,1,0-5.66-3.26A4.61,4.61,0,0,0,132.73,97.77Z"/><path class="cls-1" d="M99.64,113.11a4.62,4.62,0,1,0,0-6.53A4.62,4.62,0,0,0,99.64,113.11Z"/><path class="cls-1" d="M87.57,134a4.62,4.62,0,1,0,3.27,5.65A4.61,4.61,0,0,0,87.57,134Z"/><path class="cls-1" d="M85.18,167.07a4.61,4.61,0,1,0,5.65,3.26A4.6,4.6,0,0,0,85.18,167.07Z"/><path class="cls-1" d="M106.17,196.89a4.61,4.61,0,1,0,0,6.52A4.61,4.61,0,0,0,106.17,196.89Z"/><path class="cls-1" d="M132.72,212.22a4.61,4.61,0,1,0,3.27,5.65A4.61,4.61,0,0,0,132.72,212.22Z"/><path class="cls-1" d="M163.39,212.22a4.61,4.61,0,1,0,5.65,3.26A4.61,4.61,0,0,0,163.39,212.22Z"/><path class="cls-1" d="M196.47,196.88a4.61,4.61,0,1,0,0,6.53A4.6,4.6,0,0,0,196.47,196.88Z"/><path class="cls-2" d="M161.82,157.75c-1.08,1.08-2.08,2.14-3.16,3.13a25.59,25.59,0,0,1-2.58,2.06,4.61,4.61,0,0,1-4.33.46,3,3,0,0,1-2.05-2.48c-1.56,1.26-3,2.73-5.16,2.82-.18.83-.36,1.69-.54,2.55a8.7,8.7,0,0,0-.23,1.13c0,.55-.3.77-.84.88-1.33.27-4.2,1-4.4,1,1.59-7.51,3.17-15,4.76-22.41h4.82c-.25,1.21-2.49,11.88-2.51,12-.13,1.27.68,2,1.92,1.65a9.58,9.58,0,0,0,2-1.07c.1-.06.13-.25.16-.39.85-4,1.68-7.95,2.52-11.92a1.76,1.76,0,0,1,.1-.3h4.8c-.26,1.23-1.89,9.08-2.46,11.82a3.6,3.6,0,0,0,0,.66,1.12,1.12,0,0,0,.95,1.19,2,2,0,0,0,1.6-.18,13.73,13.73,0,0,0,1.5-1,12.58,12.58,0,0,0,1.46-1.26A1.74,1.74,0,0,1,161.82,157.75Z"/></svg>